<svg xmlns="http://www.w3.org/2000/svg" viewBox="0 0 24 24" fill="white">
  <path d="M18.6,6.62C21.58,6.62 24,9.04 24,12C24,14.96 21.58,17.38 18.6,17.38C17.15,17.38 15.8,16.78 14.78,15.76L12,13L9.22,15.76C8.2,16.78 6.85,17.38 5.4,17.38C2.42,17.38 0,14.96 0,12C0,9.04 2.42,6.62 5.4,6.62C6.85,6.62 8.2,7.22 9.22,8.24L12,11L14.78,8.24C15.8,7.22 17.15,6.62 18.6,6.62M5.4,15.38C6.84,15.38 7.83,14.39 7.83,12.95C7.83,11.51 6.84,10.52 5.4,10.52C3.96,10.52 2.97,11.51 2.97,12.95C2.97,14.39 3.96,15.38 5.4,15.38M18.6,15.38C20.04,15.38 21.03,14.39 21.03,12.95C21.03,11.51 20.04,10.52 18.6,10.52C17.16,10.52 16.17,11.51 16.17,12.95C16.17,14.39 17.16,15.38 18.6,15.38Z"/>
</svg> 