<svg width="58" height="32" viewBox="0 0 58 32" fill="none" xmlns="http://www.w3.org/2000/svg">
<path fill-rule="evenodd" clip-rule="evenodd" d="M23.8505 31.395H34.1004V31.3936C36.0761 31.3936 37.6774 29.7923 37.6774 27.8166C37.6774 25.841 36.0761 24.2397 34.1004 24.2397H27.4275V4.18192C27.4275 2.20624 25.8262 0.604965 23.8505 0.604965C21.8748 0.604965 20.2736 2.20624 20.2736 4.18192V27.8181C20.2736 29.7938 21.8748 31.395 23.8505 31.395ZM10.136 22.8746C10.136 24.8502 11.7373 26.4515 13.7129 26.4515C15.6886 26.4515 17.2899 24.8502 17.2899 22.8746V9.12689C17.2899 7.15121 15.6886 5.54993 13.7129 5.54993C11.7373 5.54993 10.136 7.15121 10.136 9.12689V22.8746ZM34.1005 21.5066C32.1248 21.5066 30.5236 19.9053 30.5236 17.9296V4.18192C30.5236 2.20624 32.1248 0.604965 34.1005 0.604965C36.0762 0.604965 37.6775 2.20624 37.6775 4.18192V17.9296C37.6775 19.9053 36.0762 21.5066 34.1005 21.5066ZM40.6597 22.8746C40.6597 24.8502 42.2609 26.4515 44.2366 26.4515C46.2123 26.4515 47.8136 24.8502 47.8136 22.8746V9.12689C47.8136 7.15121 46.2123 5.54993 44.2366 5.54993C42.2609 5.54993 40.6597 7.15121 40.6597 9.12689V22.8746ZM3.597 19.6043C5.58761 19.6043 7.20132 17.9906 7.20132 16C7.20132 14.0094 5.58761 12.3957 3.597 12.3957C1.60638 12.3957 -0.00732422 14.0094 -0.00732422 16C-0.00732422 17.9906 1.60638 19.6043 3.597 19.6043ZM58.0073 16C58.0073 17.9906 56.3936 19.6043 54.403 19.6043C52.4124 19.6043 50.7987 17.9906 50.7987 16C50.7987 14.0094 52.4124 12.3957 54.403 12.3957C56.3936 12.3957 58.0073 14.0094 58.0073 16Z" fill="url(#paint0_linear_2033_12071)"/>
<defs>
<linearGradient id="paint0_linear_2033_12071" x1="-0.00732284" y1="35.2438" x2="34.2045" y2="-29.6589" gradientUnits="userSpaceOnUse">
<stop stop-color="#FD98A2"/>
<stop offset="0.315" stop-color="#FB2671"/>
<stop offset="0.675" stop-color="#A42CCD"/>
<stop offset="1" stop-color="#7F4AFB"/>
</linearGradient>
</defs>
</svg>

